<svg width="32" height="32" viewBox="0 0 32 32" fill="none" xmlns="http://www.w3.org/2000/svg">
<path d="M27.3333 13.5867H23.48C20.32 13.5867 17.7467 11.0133 17.7467 7.85333V4C17.7467 3.26666 17.1467 2.66666 16.4133 2.66666H10.76C6.65334 2.66666 3.33334 5.33333 3.33334 10.0933V21.9067C3.33334 26.6667 6.65334 29.3333 10.76 29.3333H21.24C25.3467 29.3333 28.6667 26.6667 28.6667 21.9067V14.92C28.6667 14.1867 28.0667 13.5867 27.3333 13.5867Z" fill="#9396A5"/>
<path d="M21.0667 2.94667C20.52 2.4 19.5733 2.77333 19.5733 3.53333V8.18667C19.5733 10.1333 21.2267 11.7467 23.24 11.7467C24.5067 11.76 26.2667 11.76 27.7733 11.76C28.5333 11.76 28.9333 10.8667 28.4 10.3333C26.48 8.4 23.04 4.92 21.0667 2.94667Z" fill="#9396A5"/>
</svg>
