<?xml version="1.0" encoding="utf-8"?>
<!-- Generator: Adobe Illustrator 22.0.0, SVG Export Plug-In . SVG Version: 6.00 Build 0)  -->
<svg version="1.1" id="Icon_Set" xmlns="http://www.w3.org/2000/svg" xmlns:xlink="http://www.w3.org/1999/xlink" x="0px" y="0px"
	 viewBox="0 0 64 64" style="enable-background:new 0 0 64 64;" xml:space="preserve">
<style type="text/css">
	.st0{fill:#40C4FF;}
	.st1{fill:#263238;}
	.st2{fill:#FFD740;}
	.st3{fill:#FF5252;}
	.st4{fill:#4DB6AC;}
	.st5{fill:#FFFFFF;}
	.st6{fill:#4FC3F7;}
	.st7{fill:#37474F;}
</style>
<g>
	<g>
		<rect x="30" y="29.625" class="st2" width="24" height="5"/>
	</g>
	<g>
		<rect x="10" y="20.375" class="st0" width="12" height="5"/>
	</g>
	<g>
		<path class="st1" d="M50.5,5.125h-4c-0.276,0-0.5-0.224-0.5-0.5s0.224-0.5,0.5-0.5h4c0.276,0,0.5,0.224,0.5,0.5
			S50.776,5.125,50.5,5.125z"/>
	</g>
	<g>
		<path class="st1" d="M48.5,7.125c-0.276,0-0.5-0.224-0.5-0.5v-4c0-0.276,0.224-0.5,0.5-0.5s0.5,0.224,0.5,0.5v4
			C49,6.901,48.776,7.125,48.5,7.125z"/>
	</g>
	<g>
		<path class="st1" d="M56.5,10.625h-4c-0.276,0-0.5-0.224-0.5-0.5s0.224-0.5,0.5-0.5h4c0.276,0,0.5,0.224,0.5,0.5
			S56.776,10.625,56.5,10.625z"/>
	</g>
	<g>
		<path class="st1" d="M54.5,12.625c-0.276,0-0.5-0.224-0.5-0.5v-4c0-0.276,0.224-0.5,0.5-0.5s0.5,0.224,0.5,0.5v4
			C55,12.401,54.776,12.625,54.5,12.625z"/>
	</g>
	<g>
		<path class="st1" d="M60,27.375h-9.5c-0.276,0-0.5-0.224-0.5-0.5v-9.5c0-0.202,0.122-0.385,0.309-0.462
			c0.187-0.078,0.401-0.034,0.545,0.108l9.5,9.5c0.143,0.143,0.186,0.358,0.108,0.545S60.202,27.375,60,27.375z M51,26.375h7.793
			L51,18.582V26.375z"/>
	</g>
	<g>
		<path class="st1" d="M57.5,61.875h-31c-1.654,0-3-1.346-3-3v-39c0-1.654,1.346-3,3-3h24c0.133,0,0.26,0.053,0.354,0.146l9.5,9.5
			c0.094,0.094,0.146,0.221,0.146,0.354v32C60.5,60.529,59.154,61.875,57.5,61.875z M26.5,17.875c-1.103,0-2,0.897-2,2v39
			c0,1.103,0.897,2,2,2h31c1.103,0,2-0.897,2-2V27.082l-9.207-9.207H26.5z"/>
	</g>
	<g>
		<path class="st1" d="M54,40.375H30c-0.276,0-0.5-0.224-0.5-0.5s0.224-0.5,0.5-0.5h24c0.276,0,0.5,0.224,0.5,0.5
			S54.276,40.375,54,40.375z"/>
	</g>
	<g>
		<path class="st1" d="M54,45.375H30c-0.276,0-0.5-0.224-0.5-0.5s0.224-0.5,0.5-0.5h24c0.276,0,0.5,0.224,0.5,0.5
			S54.276,45.375,54,45.375z"/>
	</g>
	<g>
		<path class="st1" d="M54,50.375H30c-0.276,0-0.5-0.224-0.5-0.5s0.224-0.5,0.5-0.5h24c0.276,0,0.5,0.224,0.5,0.5
			S54.276,50.375,54,50.375z"/>
	</g>
	<g>
		<path class="st1" d="M54,50.375H30c-0.276,0-0.5-0.224-0.5-0.5s0.224-0.5,0.5-0.5h24c0.276,0,0.5,0.224,0.5,0.5
			S54.276,50.375,54,50.375z"/>
	</g>
	<g>
		<path class="st1" d="M40,12.875h-9.5c-0.276,0-0.5-0.224-0.5-0.5v-9.5c0-0.202,0.122-0.385,0.309-0.462
			c0.188-0.078,0.402-0.035,0.545,0.108l9.5,9.5c0.143,0.143,0.186,0.358,0.108,0.545S40.202,12.875,40,12.875z M31,11.875h7.793
			L31,4.082V11.875z"/>
	</g>
	<g>
		<path class="st1" d="M22,47.375H6.5c-1.654,0-3-1.346-3-3v-39c0-1.654,1.346-3,3-3h24c0.133,0,0.26,0.053,0.354,0.146l9.5,9.5
			c0.094,0.094,0.146,0.221,0.146,0.354v3c0,0.276-0.224,0.5-0.5,0.5s-0.5-0.224-0.5-0.5v-2.793l-9.207-9.207H6.5
			c-1.103,0-2,0.897-2,2v39c0,1.103,0.897,2,2,2H22c0.276,0,0.5,0.224,0.5,0.5S22.276,47.375,22,47.375z"/>
	</g>
	<g>
		<path class="st1" d="M22,15.875H10c-0.276,0-0.5-0.224-0.5-0.5s0.224-0.5,0.5-0.5h12c0.276,0,0.5,0.224,0.5,0.5
			S22.276,15.875,22,15.875z"/>
	</g>
	<g>
		<path class="st1" d="M22,20.875H10c-0.276,0-0.5-0.224-0.5-0.5s0.224-0.5,0.5-0.5h12c0.276,0,0.5,0.224,0.5,0.5
			S22.276,20.875,22,20.875z"/>
	</g>
	<g>
		<path class="st1" d="M22,25.875H10c-0.276,0-0.5-0.224-0.5-0.5s0.224-0.5,0.5-0.5h12c0.276,0,0.5,0.224,0.5,0.5
			S22.276,25.875,22,25.875z"/>
	</g>
	<g>
		<path class="st1" d="M22,30.875H10c-0.276,0-0.5-0.224-0.5-0.5s0.224-0.5,0.5-0.5h12c0.276,0,0.5,0.224,0.5,0.5
			S22.276,30.875,22,30.875z"/>
	</g>
	<g>
		<path class="st1" d="M22,35.875H10c-0.276,0-0.5-0.224-0.5-0.5s0.224-0.5,0.5-0.5h12c0.276,0,0.5,0.224,0.5,0.5
			S22.276,35.875,22,35.875z"/>
	</g>
	<g>
		<path class="st1" d="M20,53.875H10c-0.276,0-0.5-0.224-0.5-0.5s0.224-0.5,0.5-0.5h10c0.276,0,0.5,0.224,0.5,0.5
			S20.276,53.875,20,53.875z"/>
	</g>
	<g>
		<path class="st1" d="M8,53.875H7c-0.276,0-0.5-0.224-0.5-0.5s0.224-0.5,0.5-0.5h1c0.276,0,0.5,0.224,0.5,0.5
			S8.276,53.875,8,53.875z"/>
	</g>
	<g>
		<path class="st1" d="M54,30.375H30c-0.276,0-0.5-0.224-0.5-0.5s0.224-0.5,0.5-0.5h24c0.276,0,0.5,0.224,0.5,0.5
			S54.276,30.375,54,30.375z"/>
	</g>
	<g>
		<path class="st1" d="M54,35.375H30c-0.276,0-0.5-0.224-0.5-0.5s0.224-0.5,0.5-0.5h24c0.276,0,0.5,0.224,0.5,0.5
			S54.276,35.375,54,35.375z"/>
	</g>
</g>
</svg>
